<?xml version="1.0" encoding="UTF-8"?>
<svg id="Layer_1" data-name="Layer 1" xmlns="http://www.w3.org/2000/svg" viewBox="0 0 128 128">
  <defs>
    <style>
      .cls-1 {
        fill: #323231;
      }

      .cls-1, .cls-2, .cls-3 {
        stroke-width: 0px;
      }

      .cls-4 {
        opacity: .35;
      }

      .cls-2 {
        fill: #ff9505;
      }

      .cls-3 {
        fill: #ce8964;
      }
    </style>
  </defs>
  <g>
    <path class="cls-2" d="M84.18,88.76c1.27-2.54,2.43-6.59.73-11.53-1.46-4.24-4.7-7.8-8.9-9.76-4.47-2.09-9.13-3.39-13.89-3.9l.53,1.18,2.12,1.66c.53-.05,1.06-.07,1.58-.07,6.81,0,12.79,4.19,15.62,10.94,2.28,5.45,1.96,11.27-.69,15.61,1.17-1.23,2.16-2.62,2.91-4.12Z"/>
    <path class="cls-2" d="M55.57,46.04c.08.16.16.31.24.47,9.04.94,17.42,3.7,24.34,8.05.93.58,1.83,1.22,2.69,1.9-3.16-3.28-7.09-6.65-11.91-10.27l-3.93-2.94c-11.64-8.83-14.87-13.74-14.87-20.19,0-8.41,6.31-14.44,16.69-14.44,9.12,0,13.18,4.21,15.29,6.87,2.94,3.65,3.65,7.99,3.65,9.26,0,1.68.42,2.52,1.4,2.52,1.12,0,1.54-1.12,1.54-4.21,0-10.94.56-15.01.56-16.83,0-.98-.7-1.4-1.96-1.68-1.54-.42-3.37-.84-5.75-1.26-3.37-.56-7.57-1.12-12.9-1.12-17.06,0-29.07,8.49-31.8,20.95,7.6,5.41,12.39,14.61,16.72,22.93Z"/>
    <path class="cls-2" d="M70.46,107.24h-.11s-.11.01-.11.01c-.16,0-.33,0-.49,0-2.95,0-5.88-.67-8.61-1.9-.24,0-.47.02-.71.02-8.69,0-16.97-3.79-20.05-14.16-.7-2.38-1.26-5.33-1.26-7.15,0-1.12-.14-2.38-1.4-2.38-1.12,0-1.54,1.54-1.68,3.65-.14,2.24-.7,10.66-.7,18.37,0,3.09.42,3.79,2.66,4.77,6.03,2.66,12.34,3.65,20.47,3.65,4.57,0,9.29-.48,13.89-1.89l-1.32-3.03c-.19.02-.38.04-.57.06Z"/>
  </g>
  <path class="cls-1" d="M103.19,106.37c-.03-.05-.07-.1-.1-.15-2.25-3.25-6.75-4-9.94-1.61-2.9,2.17-3.65,6.28-1.7,9.33,2.14,3.36,6.62,4.25,9.87,2,.04-.03.08-.06.12-.09.59,8.67-15.81,13.08-22.25-5.61-.38-1.09-.79-2.17-1.27-3.23l-1.98-4.39c1.9-.64,3.72-1.49,5.42-2.55,16.29-10.16,11.81-33.32-3.02-42.63-7.37-4.62-16.06-7.06-24.69-7.7-5.66-10.8-11.5-23.31-22.81-26.89-4.02-1.27-8.09,1.89-7.84,6.1.87,14.43,18.4,31.61,31.26,31.18l4.94,11.35c-2.54,1.21-4.73,3.06-6.24,5.44-7.04,11.08,3.53,27.26,17.18,26.93.98-.09,1.97-.24,2.95-.45l5.63,12.94c.92,2.11,2.22,4.04,3.87,5.64,3.55,3.43,7.59,4.4,11.51,3.61,10.97-3.07,12.92-13.44,9.08-19.22ZM27.99,32.71c.26-1.09,1.17-1.89,2.28-2.01,9.59-1.08,14.55,8.8,19.75,18.12-8.84.25-24.24-6.72-22.03-16.1ZM63.35,99.89c-7.67-6.85-7.5-14.57-3.06-19.35.63-.68,1.34-1.27,2.09-1.76l9.84,22.61c-3.08.45-6.16.03-8.88-1.5ZM64.71,77.62c2.33-.84,4.93-.9,7.35-.04,6.01,2.11,8.05,8.59,4.86,15.36,8.09-8.22-.22-27.35-15.4-22.4l-4.78-10.62c7.4-.12,14.27,1.46,20.71,4.46,4.99,2.33,8.9,6.53,10.68,11.74,3.93,11.44-3.95,21.66-13.05,24.59l-10.38-23.09Z"/>
  <g class="cls-4">
    <path class="cls-3" d="M62.13,63.57l.53,1.18,2.12,1.66c.53-.05,1.06-.07,1.58-.07,6.81,0,12.79,4.19,15.62,10.94,2.28,5.45,1.96,11.27-.69,15.61,1.17-1.23,2.16-2.62,2.91-4.12,1.27-2.54,2.43-6.59.73-11.53-1.46-4.24-4.7-7.8-8.9-9.76-4.47-2.09-9.13-3.39-13.89-3.9h0Z"/>
    <path class="cls-3" d="M70.66,2.16c-17.06,0-29.07,8.49-31.8,20.95,7.6,5.41,12.39,14.61,16.72,22.93.08.16.16.31.24.47,9.04.94,17.42,3.7,24.34,8.05.93.58,1.83,1.22,2.69,1.9-3.16-3.28-7.09-6.65-11.91-10.27l-3.93-2.95c-11.64-8.83-14.87-13.74-14.87-20.19,0-8.41,6.31-14.44,16.69-14.44,9.12,0,13.18,4.21,15.29,6.87,2.94,3.65,3.65,7.99,3.65,9.26,0,1.68.42,2.52,1.4,2.52,1.12,0,1.54-1.12,1.54-4.21,0-10.94.56-15.01.56-16.83,0-.98-.7-1.4-1.96-1.68-1.54-.42-3.37-.84-5.75-1.26-3.37-.56-7.57-1.12-12.9-1.12h0Z"/>
    <path class="cls-3" d="M46.04,85.57h0,0M46.04,85.57h0s0,0,0,0M37.71,81.67c-1.12,0-1.54,1.54-1.68,3.65-.14,2.24-.7,10.66-.7,18.37,0,3.09.42,3.79,2.66,4.77,6.03,2.66,12.34,3.65,20.47,3.65,4.57,0,9.29-.48,13.89-1.89l-1.32-3.03c-.19.02-.38.04-.57.06h-.11s-.11.01-.11.01c-.16,0-.33,0-.49,0-2.95,0-5.88-.67-8.61-1.9-.24,0-.47.02-.71.02-8.69,0-16.97-3.79-20.05-14.16-.7-2.38-1.26-5.33-1.26-7.15,0-1.12-.14-2.38-1.4-2.38h0Z"/>
  </g>
</svg>